# This file uses centimeters as units for non-parametric coordinates.

mtllib ParedeLabirinto.mtl
g default
v -0.640000 0.250000 0.150000
v 0.640000 0.250000 0.150000
v -0.640000 1.750000 0.150000
v 0.640000 1.750000 0.150000
v -0.640000 1.750000 -0.150000
v 0.640000 1.750000 -0.150000
v -0.640000 0.250000 -0.150000
v 0.640000 0.250000 -0.150000
v -0.621417 1.750000 0.150000
v -0.621417 1.750000 -0.150000
v -0.621417 0.250000 -0.150000
v -0.621417 0.250000 0.150000
v -0.640000 1.742609 0.150000
v -0.640000 1.742609 -0.150000
v -0.621417 1.742609 -0.150000
v 0.640000 1.742609 -0.150000
v 0.640000 1.742609 0.150000
v -0.621417 1.742609 0.150000
v 0.629542 1.750000 -0.150000
v 0.629542 1.742609 -0.150000
v 0.629542 0.250000 -0.150000
v 0.629542 0.250000 0.150000
v 0.629542 1.742609 0.150000
v 0.629542 1.750000 0.150000
v 0.640000 0.262528 -0.150000
v 0.629542 0.262528 -0.150000
v -0.621417 0.262528 -0.150000
v -0.640000 0.262528 -0.150000
v -0.640000 0.262528 0.150000
v -0.621417 0.262528 0.150000
v 0.629542 0.262528 0.150000
v 0.640000 0.262528 0.150000
vt 0.375481 -0.005286
vt 0.625481 -0.004772
vt 0.374967 0.244713
vt 0.624967 0.245227
vt 0.374453 0.494713
vt 0.624452 0.495227
vt 0.373938 0.744712
vt 0.623938 0.745227
vt 0.373424 0.994712
vt 0.623423 0.995226
vt 0.875480 -0.004258
vt 0.874966 0.245742
vt 0.125482 -0.005801
vt 0.124968 0.244199
vt 0.378597 0.244721
vt 0.378082 0.494720
vt 0.377568 0.744720
vt 0.379111 -0.005279
vt 0.377053 0.994719
vt 0.374970 0.243481
vt 0.124970 0.242967
vt 0.374450 0.495944
vt 0.378080 0.495952
vt 0.624450 0.496459
vt 0.874968 0.244510
vt 0.624969 0.243996
vt 0.378599 0.243489
vt 0.622410 0.495223
vt 0.622407 0.496455
vt 0.621895 0.745222
vt 0.623438 -0.004776
vt 0.621381 0.995222
vt 0.622926 0.243991
vt 0.622924 0.245223
vt 0.623942 0.743138
vt 0.875476 -0.002170
vt 0.621899 0.743134
vt 0.377572 0.742631
vt 0.125478 -0.003713
vt 0.373942 0.742624
vt 0.375477 -0.003198
vt 0.379107 -0.003191
vt 0.623434 -0.002688
vt 0.625477 -0.002684
vn 0.000000 0.000000 1.000000
vn 0.000000 0.000000 1.000000
vn 0.000000 0.000000 1.000000
vn 0.000000 0.000000 1.000000
vn 0.000000 1.000000 0.000000
vn 0.000000 1.000000 0.000000
vn 0.000000 1.000000 0.000000
vn 0.000000 1.000000 0.000000
vn 0.000000 0.000000 -1.000000
vn 0.000000 0.000000 -1.000000
vn 0.000000 0.000000 -1.000000
vn 0.000000 0.000000 -1.000000
vn 0.000000 -1.000000 0.000000
vn 0.000000 -1.000000 0.000000
vn 0.000000 -1.000000 0.000000
vn 0.000000 -1.000000 0.000000
vn 1.000000 0.000000 0.000000
vn 1.000000 0.000000 0.000000
vn 1.000000 0.000000 0.000000
vn 1.000000 0.000000 0.000000
vn -1.000000 0.000000 0.000000
vn -1.000000 0.000000 0.000000
vn -1.000000 0.000000 0.000000
vn -1.000000 0.000000 0.000000
vn 0.000000 1.000000 0.000000
vn 0.000000 1.000000 0.000000
vn 0.000000 0.000000 -1.000000
vn 0.000000 0.000000 -1.000000
vn 0.000000 -1.000000 0.000000
vn 0.000000 -1.000000 0.000000
vn 0.000000 0.000000 1.000000
vn 0.000000 0.000000 1.000000
vn -1.000000 0.000000 0.000000
vn -1.000000 0.000000 0.000000
vn 0.000000 0.000000 -1.000000
vn 0.000000 0.000000 -1.000000
vn 0.000000 0.000000 -1.000000
vn 1.000000 0.000000 0.000000
vn 1.000000 0.000000 0.000000
vn 0.000000 0.000000 1.000000
vn 0.000000 0.000000 1.000000
vn 0.000000 0.000000 1.000000
vn 0.000000 0.000000 -1.000000
vn 0.000000 0.000000 -1.000000
vn 0.000000 0.000000 -1.000000
vn 0.000000 -1.000000 0.000000
vn 0.000000 -1.000000 0.000000
vn 0.000000 0.000000 1.000000
vn 0.000000 0.000000 1.000000
vn 0.000000 0.000000 1.000000
vn 0.000000 1.000000 0.000000
vn 0.000000 1.000000 0.000000
vn 0.000000 0.000000 -1.000000
vn 0.000000 0.000000 -1.000000
vn 0.000000 0.000000 -1.000000
vn 0.000000 0.000000 -1.000000
vn -1.000000 0.000000 0.000000
vn -1.000000 0.000000 0.000000
vn 0.000000 0.000000 1.000000
vn 0.000000 0.000000 1.000000
vn 0.000000 0.000000 1.000000
vn 0.000000 0.000000 1.000000
vn 1.000000 0.000000 0.000000
vn 1.000000 0.000000 0.000000
s 1
g pCube1
usemtl anisotropic1SG
f 29/41/1 30/42/2 18/27/3 13/20/4
s 2
f 3/3/5 9/15/6 10/16/7 5/5/8
s 3
f 14/22/9 15/23/10 27/38/11 28/40/12
s 4
f 7/7/13 11/17/14 12/19/15 1/9/16
s 5
f 32/44/17 25/36/18 16/25/19 17/26/20
s 6
f 28/39/21 29/41/22 13/20/23 14/21/24
s 2
f 9/15/6 24/34/25 19/28/26 10/16/7
s 3
f 27/38/11 15/23/10 20/29/27 26/37/28
s 4
f 12/19/15 11/17/14 21/30/29 22/32/30
s 1
f 18/27/3 30/42/2 31/43/31 23/33/32
s 6
f 14/21/24 13/20/23 3/3/33 5/14/34
s 3
f 5/5/35 10/16/36 15/23/10 14/22/9
f 20/29/27 15/23/10 10/16/36 19/28/37
s 5
f 17/26/20 16/25/19 6/12/38 4/4/39
s 1
f 9/15/40 18/27/3 23/33/32 24/34/41
f 13/20/4 18/27/3 9/15/40 3/3/42
s 3
f 16/24/43 20/29/27 19/28/37 6/6/44
f 26/37/28 20/29/27 16/24/43 25/35/45
s 4
f 22/32/30 21/30/29 8/8/46 2/10/47
s 1
f 23/33/32 31/43/31 32/44/48 17/26/49
f 24/34/41 23/33/32 17/26/49 4/4/50
s 2
f 19/28/26 24/34/25 4/4/51 6/6/52
s 3
f 21/30/53 26/37/28 25/35/45 8/8/54
f 11/17/55 27/38/11 26/37/28 21/30/53
f 28/40/12 27/38/11 11/17/55 7/7/56
s 6
f 7/13/57 1/1/58 29/41/22 28/39/21
s 1
f 1/1/59 12/18/60 30/42/2 29/41/1
f 31/43/31 30/42/2 12/18/60 22/31/61
f 32/44/48 31/43/31 22/31/61 2/2/62
s 5
f 2/2/63 8/11/64 25/36/18 32/44/17
