# This file uses centimeters as units for non-parametric coordinates.

mtllib Chao.mtl
g default
v 1.114342 54.740477 2.451552
v 1.114342 54.740477 2.451552
v 1.114342 54.740477 2.451552
v 1.114342 54.740477 2.451552
vt 0.000000 0.000000
vt 0.000000 0.000000
vt 0.000000 0.000000
vt 0.000000 0.000000
vn 0.000000 0.000000 -1.000000
vn 0.000000 0.000000 -1.000000
vn 0.000000 0.000000 -1.000000
vn 0.000000 0.000000 -1.000000
s off
g Mesh
usemtl Chao_material_32
f 2/1/1 3/2/2 1/3/3 4/4/4
g default
v -55.796062 0.000000 58.909687
v 55.796062 0.000000 58.909687
v -55.796062 0.000000 -58.909687
v 55.796062 0.000000 -58.909687
v -55.796062 0.000000 -58.810215
v 55.796062 0.000000 -58.810215
v -55.643131 0.000000 -58.909691
v -55.643131 0.000000 -58.810215
v -55.643131 0.000000 58.909691
v -55.796066 0.000000 58.741653
v -55.643131 0.000000 58.741657
v 55.796066 0.000000 58.741653
v 55.688915 0.000000 58.909687
v 55.688919 0.000000 58.741653
v 55.688915 0.000000 -58.810215
v 55.688915 0.000000 -58.909687
vt -0.001161 0.999156
vt 1.005488 0.999156
vt 1.005488 1.000000
vt -0.001161 1.000000
vt -0.001161 0.001426
vt 1.005488 0.001426
vt 1.005488 0.999156
vt -0.001161 0.999156
vt -0.002543 0.999156
vt -0.001161 0.999156
vt -0.001161 1.000000
vt -0.002543 1.000000
vt -0.002543 0.001426
vt -0.001161 0.001426
vt -0.001161 0.999156
vt -0.002543 0.999156
vt -0.002543 0.000000
vt -0.001161 0.000000
vt -0.001161 0.001426
vt -0.002543 0.001426
vt -0.001161 0.000000
vt 1.005488 0.000000
vt 1.005488 0.001426
vt -0.001161 0.001426
vt 1.005488 0.000000
vt 1.006457 0.000000
vt 1.006457 0.001426
vt 1.005488 0.001426
vt 1.005488 0.999156
vt 1.005488 0.001426
vt 1.006457 0.001426
vt 1.006457 0.999156
vt 1.005488 1.000000
vt 1.005488 0.999156
vt 1.006457 0.999156
vt 1.006457 1.000000
vn 0.000000 1.000000 0.000000
vn 0.000000 1.000000 0.000000
vn 0.000000 1.000000 0.000000
vn 0.000000 1.000000 0.000000
vn 0.000000 1.000000 0.000000
vn 0.000000 1.000000 0.000000
vn 0.000000 1.000000 0.000000
vn 0.000000 1.000000 0.000000
vn 0.000000 1.000000 0.000000
vn 0.000000 1.000000 0.000000
vn 0.000000 1.000000 0.000000
vn 0.000000 1.000000 0.000000
vn 0.000000 1.000000 0.000000
vn 0.000000 1.000000 0.000000
vn 0.000000 1.000000 0.000000
vn 0.000000 1.000000 0.000000
vn 0.000000 1.000000 0.000000
vn 0.000000 1.000000 0.000000
vn 0.000000 1.000000 0.000000
vn 0.000000 1.000000 0.000000
vn 0.000000 1.000000 0.000000
vn 0.000000 1.000000 0.000000
vn 0.000000 1.000000 0.000000
vn 0.000000 1.000000 0.000000
vn 0.000000 1.000000 0.000000
vn 0.000000 1.000000 0.000000
vn 0.000000 1.000000 0.000000
vn 0.000000 1.000000 0.000000
vn 0.000000 1.000000 0.000000
vn 0.000000 1.000000 0.000000
vn 0.000000 1.000000 0.000000
vn 0.000000 1.000000 0.000000
vn 0.000000 1.000000 0.000000
vn 0.000000 1.000000 0.000000
vn 0.000000 1.000000 0.000000
vn 0.000000 1.000000 0.000000
s off
g pPlane1
usemtl Chao_initialShadingGroup3
f 12/5/5 19/6/6 20/7/7 11/8/8
f 15/9/9 18/10/10 19/11/11 12/12/12
f 9/13/13 12/14/14 11/15/15 7/16/16
f 14/17/17 15/18/18 12/19/19 9/20/20
f 5/21/21 13/22/22 15/23/23 14/24/24
f 13/25/25 17/26/26 18/27/27 15/28/28
f 17/29/29 6/30/30 16/31/31 18/32/32
f 19/33/33 18/34/34 16/35/35 10/36/36
f 20/37/37 19/38/38 10/39/39 8/40/40
