# This file uses centimeters as units for non-parametric coordinates.

mtllib Tapete.mtl
g default
v -12.500000 -0.000000 10.000000
v 12.500000 -0.000000 10.000000
v -12.500000 0.000000 -10.000000
v 12.500000 0.000000 -10.000000
v 12.500000 -0.000000 9.956021
v -12.500000 -0.000000 9.956021
v 12.449877 -0.000000 10.000000
v 12.449877 -0.000000 9.956021
v 12.449877 0.000000 -10.000000
v 12.500000 0.000000 -9.955139
v 12.449877 0.000000 -9.955139
v -12.500000 0.000000 -9.955139
v -12.484734 -0.000000 10.000000
v -12.484734 -0.000000 9.956021
v -12.484734 0.000000 -9.955139
v -12.484734 0.000000 -10.000000
vt 0.000000 0.000000
vt 1.000000 0.000000
vt 0.000000 0.997725
vt 1.000000 0.997725
vt 1.000000 0.002194
vt 0.000000 0.002194
vt 0.997995 0.000000
vt 0.997995 0.002194
vt 0.997995 0.997725
vt 1.000000 0.995487
vt 0.997995 0.995487
vt 0.000000 0.995487
vt 0.000611 0.000000
vt 0.000611 0.002194
vt 0.000611 0.995487
vt 0.000611 0.997725
vn 0.000000 1.000000 0.000000
vn 0.000000 1.000000 0.000000
vn 0.000000 1.000000 0.000000
vn 0.000000 1.000000 0.000000
vn 0.000000 1.000000 0.000000
vn 0.000000 1.000000 0.000000
vn 0.000000 1.000000 0.000000
vn 0.000000 1.000000 0.000000
vn 0.000000 1.000000 0.000000
vn 0.000000 1.000000 0.000000
vn 0.000000 1.000000 0.000000
vn 0.000000 1.000000 0.000000
vn 0.000000 1.000000 0.000000
vn 0.000000 1.000000 0.000000
vn 0.000000 1.000000 0.000000
vn 0.000000 1.000000 0.000000
s 1
g pPlane1
usemtl lambert2SG
f 1/1/1 13/13/2 14/14/3 6/6/4
f 6/6/4 14/14/3 15/15/5 12/12/6
f 7/7/7 2/2/8 5/5/9 8/8/10
f 11/11/11 8/8/10 5/5/9 10/10/12
f 9/9/13 11/11/11 10/10/12 4/4/14
f 12/12/6 15/15/5 16/16/15 3/3/16
f 13/13/2 7/7/7 8/8/10 14/14/3
f 15/15/5 14/14/3 8/8/10 11/11/11
f 16/16/15 15/15/5 11/11/11 9/9/13
